<mxfile host="app.diagrams.net" agent="Mozilla/5.0 (Windows NT 10.0; Win64; x64) AppleWebKit/537.36 (KHTML, like Gecko) Chrome/129.0.0.0 Safari/537.36" version="24.7.17">
  <diagram name="Страница — 1" id="xtaqQ8ORjoq2p6m3INVi">
    <mxGraphModel grid="1" page="1" gridSize="10" guides="1" tooltips="1" connect="1" arrows="1" fold="1" pageScale="1" pageWidth="827" pageHeight="1169" math="0" shadow="0">
      <root>
        <mxCell id="0" />
        <mxCell id="1" parent="0" />
        <mxCell id="6Xlpz87VEOKjcnjcQAyQ-3" style="edgeStyle=orthogonalEdgeStyle;rounded=0;orthogonalLoop=1;jettySize=auto;html=1;exitX=0.5;exitY=1;exitDx=0;exitDy=0;" edge="1" parent="1" source="6Xlpz87VEOKjcnjcQAyQ-1" target="6Xlpz87VEOKjcnjcQAyQ-2">
          <mxGeometry relative="1" as="geometry" />
        </mxCell>
        <mxCell id="6Xlpz87VEOKjcnjcQAyQ-1" value="Просмотр списка с кроссминусовкой" style="ellipse;whiteSpace=wrap;html=1;" vertex="1" parent="1">
          <mxGeometry x="370" y="20" width="120" height="80" as="geometry" />
        </mxCell>
        <mxCell id="6Xlpz87VEOKjcnjcQAyQ-5" style="edgeStyle=orthogonalEdgeStyle;rounded=0;orthogonalLoop=1;jettySize=auto;html=1;exitX=0;exitY=0.5;exitDx=0;exitDy=0;entryX=0;entryY=0.5;entryDx=0;entryDy=0;" edge="1" parent="1" source="6Xlpz87VEOKjcnjcQAyQ-2" target="6Xlpz87VEOKjcnjcQAyQ-4">
          <mxGeometry relative="1" as="geometry" />
        </mxCell>
        <mxCell id="6Xlpz87VEOKjcnjcQAyQ-12" style="edgeStyle=orthogonalEdgeStyle;rounded=0;orthogonalLoop=1;jettySize=auto;html=1;exitX=1;exitY=0.5;exitDx=0;exitDy=0;entryX=0.5;entryY=0;entryDx=0;entryDy=0;" edge="1" parent="1" source="6Xlpz87VEOKjcnjcQAyQ-2" target="6Xlpz87VEOKjcnjcQAyQ-8">
          <mxGeometry relative="1" as="geometry" />
        </mxCell>
        <mxCell id="6Xlpz87VEOKjcnjcQAyQ-2" value="Есть мои кампании в списке?" style="rounded=0;whiteSpace=wrap;html=1;" vertex="1" parent="1">
          <mxGeometry x="370" y="140" width="120" height="60" as="geometry" />
        </mxCell>
        <mxCell id="6Xlpz87VEOKjcnjcQAyQ-4" value="Закончить работу со вкладкой" style="ellipse;whiteSpace=wrap;html=1;" vertex="1" parent="1">
          <mxGeometry x="362" y="330" width="136" height="90" as="geometry" />
        </mxCell>
        <mxCell id="6Xlpz87VEOKjcnjcQAyQ-6" value="Нет" style="text;html=1;align=center;verticalAlign=middle;whiteSpace=wrap;rounded=0;" vertex="1" parent="1">
          <mxGeometry x="330" y="140" width="60" height="30" as="geometry" />
        </mxCell>
        <mxCell id="6Xlpz87VEOKjcnjcQAyQ-7" value="Да" style="text;html=1;align=center;verticalAlign=middle;whiteSpace=wrap;rounded=0;" vertex="1" parent="1">
          <mxGeometry x="480" y="140" width="60" height="30" as="geometry" />
        </mxCell>
        <mxCell id="6Xlpz87VEOKjcnjcQAyQ-13" style="edgeStyle=orthogonalEdgeStyle;rounded=0;orthogonalLoop=1;jettySize=auto;html=1;exitX=0.5;exitY=1;exitDx=0;exitDy=0;entryX=0.5;entryY=0;entryDx=0;entryDy=0;" edge="1" parent="1" source="6Xlpz87VEOKjcnjcQAyQ-8" target="6Xlpz87VEOKjcnjcQAyQ-9">
          <mxGeometry relative="1" as="geometry" />
        </mxCell>
        <mxCell id="6Xlpz87VEOKjcnjcQAyQ-8" value="Проставить чекбоксы возле моих кампаний" style="rounded=0;whiteSpace=wrap;html=1;" vertex="1" parent="1">
          <mxGeometry x="498" y="200" width="120" height="60" as="geometry" />
        </mxCell>
        <mxCell id="6Xlpz87VEOKjcnjcQAyQ-14" style="edgeStyle=orthogonalEdgeStyle;rounded=0;orthogonalLoop=1;jettySize=auto;html=1;exitX=0.5;exitY=1;exitDx=0;exitDy=0;entryX=1;entryY=0.5;entryDx=0;entryDy=0;" edge="1" parent="1" source="6Xlpz87VEOKjcnjcQAyQ-9" target="6Xlpz87VEOKjcnjcQAyQ-4">
          <mxGeometry relative="1" as="geometry" />
        </mxCell>
        <mxCell id="6Xlpz87VEOKjcnjcQAyQ-9" value="Submit" style="rounded=0;whiteSpace=wrap;html=1;" vertex="1" parent="1">
          <mxGeometry x="498" y="280" width="120" height="60" as="geometry" />
        </mxCell>
      </root>
    </mxGraphModel>
  </diagram>
</mxfile>
